<?xml version="1.0" encoding="UTF-8" standalone="no"?>
<!-- Generator: Adobe Illustrator 24.0.1, SVG Export Plug-In . SVG Version: 6.00 Build 0)  -->

<svg
   version="1.1"
   id="Layer_1"
   x="0px"
   y="0px"
   width="197.60001"
   height="61.022579"
   viewBox="0 0 197.60001 61.022578"
   xml:space="preserve"
   sodipodi:docname="az-tile-logo.svg"
   inkscape:version="1.4.4 (dcaf3e7, 2026-05-05)"
   xmlns:inkscape="http://www.inkscape.org/namespaces/inkscape"
   xmlns:sodipodi="http://sodipodi.sourceforge.net/DTD/sodipodi-0.dtd"
   xmlns="http://www.w3.org/2000/svg"
   xmlns:svg="http://www.w3.org/2000/svg"><defs
   id="defs11" /><sodipodi:namedview
   id="namedview11"
   pagecolor="#ffffff"
   bordercolor="#000000"
   borderopacity="0.25"
   inkscape:showpageshadow="2"
   inkscape:pageopacity="0.0"
   inkscape:pagecheckerboard="0"
   inkscape:deskcolor="#d1d1d1"
   inkscape:zoom="3.1"
   inkscape:cx="168.06452"
   inkscape:cy="15"
   inkscape:window-width="1920"
   inkscape:window-height="1009"
   inkscape:window-x="1912"
   inkscape:window-y="-8"
   inkscape:window-maximized="1"
   inkscape:current-layer="Layer_1" />
<style
   type="text/css"
   id="style1">
	.st0{fill-rule:evenodd;clip-rule:evenodd;fill:#FFFFFE;}
</style>
<g
   id="g11">
	<path
   class="st0"
   d="M 27.1,28.3 C 26.5,27.7 25.9,26.8 25.5,25.7 21.8,17.5 18.1,9 14.3,0 12.8,4 11.1,8.5 9,13.5 8.3,15.4 7.1,17.9 5.6,21.2 4.1,24.5 3.1,26.4 2.7,26.9 2.3,27.5 1.9,28 1.5,28.5 1.2,29.1 0.6,29.4 0,29.5 h 5.2 c 0,0 2.6,-7.3 2.5,-7.5 h 12 c 0.7,1.8 1.7,4.2 2.9,7.4 h 6.6 C 28.5,29.3 27.7,28.9 27.1,28.3 Z M 8.4,20.6 13.8,7.6 c 3.4,8.2 5.1,12.4 5.2,12.6 l 0.1,0.4 z"
   id="path1"
   style="fill:#1a1a1a" />
	<path
   class="st0"
   d="m 43.5,16.4 c 0.1,-0.1 0.4,-0.3 0.8,-0.4 3.5,-2 5.2,-4.4 5.2,-7.2 C 49.5,6.7 48.7,5.1 47,4 45.6,3.1 43.8,2.6 41.6,2.7 L 31,2.8 c 0.7,0.1 1.3,0.5 1.7,1.1 0.4,0.6 0.6,1.5 0.6,2.6 v 20.1 c -0.2,1.8 -1,2.8 -2.3,3 h 8.3 C 38.5,29.4 38,29 37.6,28.4 37.2,27.8 37,26.9 37,25.8 l -0.1,-8.5 c 0.7,-0.1 1.7,-0.2 2.9,-0.2 1.8,2.2 4.2,5.2 7.1,8.9 2,2.4 4.4,3.6 7.2,3.6 h 4.8 C 53.8,28.9 49,24.4 43.5,16.4 Z m -5,-1 H 36.8 L 36.9,5.1 V 4.7 C 37,4.2 37.9,4 39.5,4 c 2,0 3.5,0.4 4.4,1.2 0.9,0.8 1.4,2.1 1.4,3.9 0,1.8 -0.5,3.3 -1.6,4.5 -1.1,1.2 -2.8,1.8 -5.2,1.8 z"
   id="path2"
   style="fill:#1a1a1a" />
	<path
   class="st0"
   d="m 71.3,2.2 c -0.8,0.1 -1.4,0.3 -1.9,0.7 -0.5,0.4 -1,0.9 -1.4,1.5 v 21.2 c 0,0.8 0.2,1.4 0.6,2 0.3,0.4 0.6,0.8 1.1,1.1 0.4,0.3 0.9,0.5 1.5,0.6 0.1,0.1 0.1,0.1 0,0.1 -0.1,0.1 -0.5,0.1 -1.1,0.1 -3.6,-0.1 -6.4,-0.1 -8.4,0 -0.4,0 -0.7,0 -0.8,-0.2 1,-0.1 1.8,-0.4 2.4,-1 0.7,-0.6 1,-1.3 1.1,-2.1 V 5.8 C 64.4,5.2 64.3,4.7 64.1,4.3 63.9,3.7 63.6,3.3 63.2,2.8 62.8,2.4 62.4,2.2 62,2.2 c 0.2,0 1.8,-0.1 4.8,-0.1 2.9,0 4.5,0 4.5,0.1 z"
   id="path3"
   style="fill:#1a1a1a" />
	<path
   class="st0"
   d="m 100.4,29.5 v 0 H 93 c -1.2,0 -2.5,0 -3.8,0 -2.7,0 -4.9,0 -6.7,0 h -5.3 c -0.1,0 -0.1,-0.1 -0.1,-0.1 C 76.9,29 77,28.6 77.4,28.1 83.6,19.5 88.8,11.9 93,5.1 93.2,4.8 93.3,4.7 93.3,4.6 93.3,4.4 92.7,4.3 91.4,4.3 h -5 c -2.7,0 -4.6,0.4 -5.7,1.2 -0.9,0.6 -2,1.9 -3.2,3.8 h -0.2 c 0,-1.9 -0.1,-4.1 -0.1,-6.7 h 6.9 c 1.5,0 3.1,0 4.7,0 1.9,0 3.6,0 5.1,0 h 4.9 c 0.1,0 0.1,0.1 0.1,0.1 0.1,0.3 0,0.6 -0.3,1.1 -5.8,7.8 -10.9,15.2 -15.3,22.3 -0.2,0.4 -0.3,0.6 -0.3,0.8 0,0.3 0.4,0.5 1.2,0.6 1.8,0.1 4.2,0.2 7.1,0.2 2.9,0 4.9,-0.3 5.9,-1 1.3,-0.7 2.2,-1.6 2.7,-2.6 0.5,-1 0.8,-1.6 0.8,-1.6 z"
   id="path4"
   style="fill:#1a1a1a" />
	<path
   class="st0"
   d="m 130.6,5.8 c -2.9,-2.7 -6.4,-4 -10.6,-4 -4.2,0 -7.7,1.4 -10.6,4.1 -2.9,2.8 -4.4,6.2 -4.4,10.2 0,4.2 1.5,7.6 4.4,10.2 2.8,2.5 6.3,3.8 10.6,3.8 4,0 7.5,-1.4 10.4,-4.1 2.9,-2.8 4.4,-6.1 4.4,-10.1 0,-4.1 -1.5,-7.5 -4.2,-10.1 z M 127.9,25 c -1.8,2.1 -4.1,3.2 -7,3.2 -3.6,0 -6.4,-1.2 -8.5,-3.4 -2.1,-2.4 -3.2,-5.5 -3.2,-9.6 0,-3.3 1,-6.1 2.8,-8.2 1.8,-2.1 4.2,-3.2 7,-3.2 3.4,0 6.2,1.1 8.3,3.3 2.2,2.3 3.3,5.5 3.3,9.5 0,3.5 -0.9,6.3 -2.7,8.4 z"
   id="path5"
   style="fill:#1a1a1a" />
	<path
   class="st0"
   d="m 167.5,2.6 c -0.7,0.1 -1.3,0.5 -1.7,1.1 -0.4,0.6 -0.6,1.5 -0.6,2.6 l 0.1,15 c 0,3.1 0,5.6 0.1,7.6 0,0.5 -0.1,0.9 -0.3,1.1 h -0.4 C 162.1,27.4 155,20.6 143.3,9.7 l -0.1,12.9 v 3.2 c 0,1.1 0.2,2 0.6,2.6 0.4,0.6 1,1 1.7,1.1 v 0 h -7 v 0 c 0.7,-0.1 1.3,-0.5 1.7,-1.1 0.4,-0.6 0.6,-1.5 0.6,-2.6 v -3.7 l 0.1,-15.5 c 0,-1.8 0,-3.2 -0.1,-4 h 0.1 l 21.2,19.2 c 0.2,0.3 0.4,0.4 0.5,0.4 0.1,0 0.2,-0.2 0.2,-0.5 V 6.5 c 0,-1.1 -0.2,-2 -0.6,-2.6 -0.4,-0.6 -1,-1 -1.7,-1.1 v 0 z"
   id="path6"
   style="fill:#1a1a1a" />
	<path
   class="st0"
   d="m 195.5,28.3 c -0.6,-0.6 -1.2,-1.5 -1.6,-2.6 C 190.2,17.5 186.5,9 182.7,0 c -1.5,4 -3.2,8.5 -5.3,13.5 -0.7,1.9 -1.9,4.4 -3.4,7.7 -1.5,3.3 -2.5,5.2 -2.9,5.7 -0.4,0.6 -0.8,1.1 -1.2,1.6 -0.3,0.6 -0.8,0.9 -1.5,1 h 5.1 l 2.6,-7.5 h 12 c 0.7,1.8 1.7,4.2 2.9,7.4 h 6.6 c -0.7,-0.1 -1.5,-0.5 -2.1,-1.1 z m -18.8,-7.7 5.4,-13 c 3.4,8.2 5.1,12.4 5.2,12.6 l 0.1,0.4 z"
   id="path7"
   style="fill:#1a1a1a" />
	
	
	
	
</g>
<g
   inkscape:groupmode="layer"
   id="layer1"
   inkscape:label="Tile"
   transform="translate(0.35)"><path
     class="st0"
     d="m 79.2,33.722581 c 0,2.6 -0.1,4.9 -0.1,6.7 h -0.2 c -1.3,-1.9 -2.3,-3.1 -3.2,-3.8 -1.1,-0.8 -3,-1.2 -5.7,-1.2 h -1.6 c -0.5,0.1 -0.8,0.2 -0.8,0.3 -0.1,0.1 -0.1,0.2 -0.1,0.3 v 20.8 c 0,0.8 0.2,1.4 0.6,2 0.3,0.4 0.6,0.8 1.1,1.1 0.4,0.3 0.9,0.5 1.5,0.6 0.1,0.1 0.1,0.1 0,0.1 -0.1,0.1 -0.5,0.1 -1.1,0.1 -3.6,-0.1 -6.4,-0.1 -8.4,0 -0.4,0 -0.7,0 -0.8,-0.2 1,-0.1 1.8,-0.4 2.4,-1 0.7,-0.6 1,-1.3 1.1,-2.1 v -21.3 c 0,-0.3 -0.1,-0.5 -0.4,-0.6 h -2.2 c -2.7,0 -4.6,0.4 -5.7,1.2 -0.9,0.6 -1.9,1.9 -3.2,3.8 h -0.3 c 0,-1.9 -0.1,-4.1 -0.1,-6.7 h 11.6 z"
     id="path8"
     style="clip-rule:evenodd;fill:#1a1a1a;fill-rule:evenodd" /><path
     class="st0"
     d="m 94,33.422581 c -0.8,0.1 -1.4,0.3 -1.9,0.7 -0.5,0.4 -1,0.9 -1.4,1.5 v 21.2 c 0,0.8 0.2,1.4 0.6,2 0.3,0.4 0.6,0.8 1.1,1.1 0.4,0.3 0.9,0.5 1.5,0.6 0.1,0.1 0.1,0.1 0,0.1 -0.1,0.1 -0.5,0.1 -1.1,0.1 -3.6,-0.1 -6.4,-0.1 -8.4,0 -0.4,0 -0.7,0 -0.8,-0.2 1,-0.1 1.8,-0.4 2.4,-1 0.7,-0.6 1,-1.3 1.1,-2.1 v -20.4 c 0,-0.6 -0.1,-1.1 -0.3,-1.5 -0.2,-0.6 -0.5,-1 -0.9,-1.5 -0.4,-0.4 -0.8,-0.6 -1.2,-0.6 0.2,-0.1 1.8,-0.1 4.8,-0.1 2.9,0 4.5,0 4.5,0.1 z"
     id="path9"
     style="clip-rule:evenodd;fill:#1a1a1a;fill-rule:evenodd" /><path
     class="st0"
     d="m 105.9,56.522581 c 0,1.3 0.7,2.1 2.2,2.4 0.4,0.1 1.6,0.1 3.8,0.1 1,0 1.9,-0.1 2.7,-0.3 1.7,-0.5 2.9,-1 3.7,-1.6 0.8,-0.6 1.3,-1.2 1.5,-2 v 0 l -0.8,5.4 v 0.3 h -0.3 c -0.2,0 -0.5,0 -0.9,0 -2.1,-0.1 -4.9,-0.2 -8.2,-0.2 -2.4,0 -5.7,0 -9.8,0 v 0 c 0.7,-0.1 1.3,-0.5 1.7,-1.1 0.4,-0.6 0.6,-1.5 0.6,-2.6 v -14.5 0 -4.8 0 0 c 0,-1.1 -0.2,-2 -0.6,-2.6 -0.4,-0.6 -1,-1 -1.7,-1.1 v 0 h 8.4 v 0 c -0.7,0.1 -1.3,0.5 -1.7,1.2 -0.4,0.7 -0.6,1.9 -0.7,3.6 z"
     id="path10"
     style="clip-rule:evenodd;fill:#1a1a1a;fill-rule:evenodd" /><path
     class="st0"
     d="m 143.9,60.822581 c -0.2,0 -0.5,0 -0.9,0 -2.1,-0.1 -4.9,-0.2 -8.2,-0.2 -2.4,0 -5.7,0 -9.8,0 v 0 c 0.7,-0.1 1.3,-0.5 1.7,-1.1 0.4,-0.6 0.6,-1.5 0.6,-2.6 v -19.2 0 0 c 0,-1.1 -0.2,-2 -0.6,-2.6 -0.4,-0.6 -1,-1 -1.7,-1.1 v 0 h 7.7 c 2.1,0 4,0 5.8,-0.1 h 0.3 c 1.2,0 2.4,-0.1 3.5,-0.2 0.9,-0.1 1.4,0 1.4,0.2 v 0.7 3.7 0 c -0.1,-0.4 -0.2,-0.7 -0.4,-1 -0.2,-0.3 -0.6,-0.5 -1.1,-0.7 -0.5,-0.2 -1.2,-0.4 -2,-0.5 -0.8,-0.1 -1.9,-0.2 -3.3,-0.3 -1.2,0 -2.8,0 -4.9,0 -0.4,0 -0.7,0.1 -0.9,0.2 -0.1,0.1 -0.1,0.3 -0.1,0.6 v 8.6 c 0,0.3 0.2,0.5 0.6,0.5 0.7,0 3.4,0 8,0 1.1,0 1.9,-0.3 2.5,-0.8 0.5,-0.5 0.8,-1.1 0.9,-1.9 v 0 c 0,1.1 0,3.4 0,6.8 v 0 c -0.1,-0.7 -0.5,-1.3 -1.1,-1.7 -0.6,-0.4 -1.5,-0.6 -2.6,-0.6 -1.8,-0.1 -4.4,-0.2 -7.9,-0.1 -0.3,0 -0.4,0.1 -0.4,0.3 v 9 c 0,1.3 0.7,2.1 2.2,2.4 0.4,0.1 1.6,0.1 3.8,0.1 1,0 1.9,-0.1 2.7,-0.3 1.7,-0.5 2.9,-1 3.7,-1.6 0.8,-0.6 1.3,-1.2 1.5,-2 v 0 l -0.8,5.4 v 0.3 z"
     id="path11"
     style="clip-rule:evenodd;fill:#1a1a1a;fill-rule:evenodd" /></g></svg>
