<?xml version="1.0" encoding="UTF-8" standalone="no"?>
<svg
   viewBox="0 0 532.35602 221.395"
   version="1.1"
   id="svg1"
   sodipodi:docname="msi-logo.svg"
   width="532.35602"
   height="221.395"
   inkscape:version="1.4.4 (dcaf3e7, 2026-05-05)"
   xmlns:inkscape="http://www.inkscape.org/namespaces/inkscape"
   xmlns:sodipodi="http://sodipodi.sourceforge.net/DTD/sodipodi-0.dtd"
   xmlns="http://www.w3.org/2000/svg"
   xmlns:svg="http://www.w3.org/2000/svg">
  <defs
     id="defs1" />
  <sodipodi:namedview
     id="namedview1"
     pagecolor="#ffffff"
     bordercolor="#000000"
     borderopacity="0.25"
     inkscape:showpageshadow="2"
     inkscape:pageopacity="0.0"
     inkscape:pagecheckerboard="0"
     inkscape:deskcolor="#d1d1d1"
     inkscape:zoom="1.43"
     inkscape:cx="266.78322"
     inkscape:cy="49.300699"
     inkscape:window-width="1920"
     inkscape:window-height="1009"
     inkscape:window-x="-8"
     inkscape:window-y="-8"
     inkscape:window-maximized="1"
     inkscape:current-layer="svg1" />
  <path
     d="m 320.152,203.013 c -21.385,-12.873 -34.841,-33.662 -35.049,-55 -0.028,-0.226 -0.064,-0.459 -0.087,-0.682 v 74.064 c 14.716,-14.716 31.661,-14.25 47.885,-12.049 a 88.752,88.752 0 0 1 -8.1,-3.735 q -2.379,-1.239 -4.646,-2.6 M 39.643,163.501 V 62.83 L 33.393,47.478 V 163.139 C 32.781,198.531 22.72,209.648 0,215.414 H 72.451 C 49.808,209.668 40.274,198.664 39.643,163.501 M 261.848,7.93 H 198.08 L 145.472,148.887 85.69,7.93 H 20.211 c 11.555,2.37 18.666,6.814 25.481,23.406 l 75.552,185.769 h 5.466 L 199.333,22.569 v 168.167 c 0,17.481 -4.741,22.222 -16.3,24.592 h 78.812 c -11.555,-2.074 -16.3,-7.111 -16.3,-24.592 V 44.373 c 0,-27.26 2.371,-33.185 16.3,-36.443 M 427.623,74.064 V 0 C 411.7,15.925 394.664,14.072 377.259,11.481 408,18.146 425.4,52.956 427.623,74.064 m 88.433,115.487 V 44.077 c 0,-26.666 2.37,-32.889 16.3,-36.147 H 453.54 c 11.852,2.666 16.295,7.7 16.295,26.072 v 145.18 c 0,26.665 -2.073,33.182 -16.295,36.146 h 78.812 c -11.556,-2.074 -16.3,-7.407 -16.3,-25.777 M 393.949,101.932 343.683,74.057 C 327.219,65.311 317.899,48.732 322.041,33.08 326.151,17.556 342.259,7.795 360.7,8.166 c -35.053,-3.854 -66.985,13.5 -74.662,42.5 -7.178,27.12 9.115,55.875 37.724,70.937 l 50.265,27.874 c 16.463,8.746 25.785,25.325 21.641,40.977 -4.108,15.525 -20.217,25.285 -38.662,24.913 35.055,3.856 66.985,-13.5 74.663,-42.5 7.178,-27.118 -9.115,-55.873 -37.723,-70.935"
     fill="#8b6f4c"
     id="path1" />
</svg>
